<svg xmlns="http://www.w3.org/2000/svg" width="512" height="512" viewBox="0 0 512 512" role="img" aria-label="Golf ball on an orange background">
  <defs>
    <radialGradient id="ball" cx="38%" cy="30%" r="78%">
      <stop offset="0%" stop-color="#ffffff"/>
      <stop offset="62%" stop-color="#f1f3f5"/>
      <stop offset="100%" stop-color="#cfd4da"/>
    </radialGradient>
    <radialGradient id="bg" cx="32%" cy="26%" r="92%">
      <stop offset="0%" stop-color="#fb923c"/>
      <stop offset="58%" stop-color="#f97316"/>
      <stop offset="100%" stop-color="#ea670c"/>
    </radialGradient>
    <clipPath id="ballClip"><circle cx="256" cy="248" r="158"/></clipPath>
  </defs>

  <rect width="512" height="512" fill="url(#bg)"/>

  <!-- contact shadow under the ball -->
  <ellipse cx="256" cy="438" rx="150" ry="30" fill="#7a3206" opacity="0.30"/>

  <!-- ball body -->
  <circle cx="256" cy="248" r="158" fill="url(#ball)"/>

  <!-- dimples -->
  <g clip-path="url(#ballClip)"><circle cx="225.0" cy="117.4" r="9" fill="#aeb6bf" opacity="0.47"/><circle cx="255.0" cy="117.4" r="9" fill="#aeb6bf" opacity="0.47"/><circle cx="285.0" cy="117.4" r="9" fill="#aeb6bf" opacity="0.47"/><circle cx="315.0" cy="117.4" r="9" fill="#aeb6bf" opacity="0.48"/><circle cx="180.0" cy="143.2" r="9" fill="#aeb6bf" opacity="0.47"/><circle cx="210.0" cy="143.2" r="9" fill="#aeb6bf" opacity="0.45"/><circle cx="240.0" cy="143.2" r="9" fill="#aeb6bf" opacity="0.44"/><circle cx="270.0" cy="143.2" r="9" fill="#aeb6bf" opacity="0.44"/><circle cx="300.0" cy="143.2" r="9" fill="#aeb6bf" opacity="0.45"/><circle cx="330.0" cy="143.2" r="9" fill="#aeb6bf" opacity="0.47"/><circle cx="165.0" cy="169.0" r="9" fill="#aeb6bf" opacity="0.46"/><circle cx="195.0" cy="169.0" r="9" fill="#aeb6bf" opacity="0.43"/><circle cx="225.0" cy="169.0" r="9" fill="#aeb6bf" opacity="0.42"/><circle cx="255.0" cy="169.0" r="9" fill="#aeb6bf" opacity="0.41"/><circle cx="285.0" cy="169.0" r="9" fill="#aeb6bf" opacity="0.42"/><circle cx="315.0" cy="169.0" r="9" fill="#aeb6bf" opacity="0.43"/><circle cx="345.0" cy="169.0" r="9" fill="#aeb6bf" opacity="0.46"/><circle cx="375.0" cy="169.0" r="9" fill="#aeb6bf" opacity="0.48"/><circle cx="150.0" cy="194.8" r="9" fill="#aeb6bf" opacity="0.46"/><circle cx="180.0" cy="194.8" r="9" fill="#aeb6bf" opacity="0.43"/><circle cx="210.0" cy="194.8" r="9" fill="#aeb6bf" opacity="0.40"/><circle cx="240.0" cy="194.8" r="9" fill="#aeb6bf" opacity="0.38"/><circle cx="270.0" cy="194.8" r="9" fill="#aeb6bf" opacity="0.38"/><circle cx="300.0" cy="194.8" r="9" fill="#aeb6bf" opacity="0.40"/><circle cx="330.0" cy="194.8" r="9" fill="#aeb6bf" opacity="0.42"/><circle cx="360.0" cy="194.8" r="9" fill="#aeb6bf" opacity="0.45"/><circle cx="135.0" cy="220.6" r="9" fill="#aeb6bf" opacity="0.46"/><circle cx="165.0" cy="220.6" r="9" fill="#aeb6bf" opacity="0.43"/><circle cx="195.0" cy="220.6" r="9" fill="#aeb6bf" opacity="0.40"/><circle cx="225.0" cy="220.6" r="9" fill="#aeb6bf" opacity="0.37"/><circle cx="255.0" cy="220.6" r="9" fill="#aeb6bf" opacity="0.35"/><circle cx="285.0" cy="220.6" r="9" fill="#aeb6bf" opacity="0.37"/><circle cx="315.0" cy="220.6" r="9" fill="#aeb6bf" opacity="0.39"/><circle cx="345.0" cy="220.6" r="9" fill="#aeb6bf" opacity="0.43"/><circle cx="375.0" cy="220.6" r="9" fill="#aeb6bf" opacity="0.46"/><circle cx="120.0" cy="246.4" r="9" fill="#aeb6bf" opacity="0.47"/><circle cx="150.0" cy="246.4" r="9" fill="#aeb6bf" opacity="0.44"/><circle cx="180.0" cy="246.4" r="9" fill="#aeb6bf" opacity="0.41"/><circle cx="210.0" cy="246.4" r="9" fill="#aeb6bf" opacity="0.37"/><circle cx="240.0" cy="246.4" r="9" fill="#aeb6bf" opacity="0.34"/><circle cx="270.0" cy="246.4" r="9" fill="#aeb6bf" opacity="0.34"/><circle cx="300.0" cy="246.4" r="9" fill="#aeb6bf" opacity="0.37"/><circle cx="330.0" cy="246.4" r="9" fill="#aeb6bf" opacity="0.40"/><circle cx="360.0" cy="246.4" r="9" fill="#aeb6bf" opacity="0.44"/><circle cx="390.0" cy="246.4" r="9" fill="#aeb6bf" opacity="0.47"/><circle cx="135.0" cy="272.2" r="9" fill="#aeb6bf" opacity="0.46"/><circle cx="165.0" cy="272.2" r="9" fill="#aeb6bf" opacity="0.43"/><circle cx="195.0" cy="272.2" r="9" fill="#aeb6bf" opacity="0.39"/><circle cx="225.0" cy="272.2" r="9" fill="#aeb6bf" opacity="0.36"/><circle cx="255.0" cy="272.2" r="9" fill="#aeb6bf" opacity="0.35"/><circle cx="285.0" cy="272.2" r="9" fill="#aeb6bf" opacity="0.36"/><circle cx="315.0" cy="272.2" r="9" fill="#aeb6bf" opacity="0.39"/><circle cx="345.0" cy="272.2" r="9" fill="#aeb6bf" opacity="0.43"/><circle cx="375.0" cy="272.2" r="9" fill="#aeb6bf" opacity="0.46"/><circle cx="150.0" cy="298.0" r="9" fill="#aeb6bf" opacity="0.45"/><circle cx="180.0" cy="298.0" r="9" fill="#aeb6bf" opacity="0.42"/><circle cx="210.0" cy="298.0" r="9" fill="#aeb6bf" opacity="0.40"/><circle cx="240.0" cy="298.0" r="9" fill="#aeb6bf" opacity="0.38"/><circle cx="270.0" cy="298.0" r="9" fill="#aeb6bf" opacity="0.38"/><circle cx="300.0" cy="298.0" r="9" fill="#aeb6bf" opacity="0.40"/><circle cx="330.0" cy="298.0" r="9" fill="#aeb6bf" opacity="0.42"/><circle cx="360.0" cy="298.0" r="9" fill="#aeb6bf" opacity="0.45"/><circle cx="390.0" cy="298.0" r="9" fill="#aeb6bf" opacity="0.48"/><circle cx="135.0" cy="323.8" r="9" fill="#aeb6bf" opacity="0.48"/><circle cx="165.0" cy="323.8" r="9" fill="#aeb6bf" opacity="0.45"/><circle cx="195.0" cy="323.8" r="9" fill="#aeb6bf" opacity="0.43"/><circle cx="225.0" cy="323.8" r="9" fill="#aeb6bf" opacity="0.41"/><circle cx="255.0" cy="323.8" r="9" fill="#aeb6bf" opacity="0.41"/><circle cx="285.0" cy="323.8" r="9" fill="#aeb6bf" opacity="0.41"/><circle cx="315.0" cy="323.8" r="9" fill="#aeb6bf" opacity="0.43"/><circle cx="345.0" cy="323.8" r="9" fill="#aeb6bf" opacity="0.45"/><circle cx="375.0" cy="323.8" r="9" fill="#aeb6bf" opacity="0.48"/><circle cx="180.0" cy="349.6" r="9" fill="#aeb6bf" opacity="0.46"/><circle cx="210.0" cy="349.6" r="9" fill="#aeb6bf" opacity="0.45"/><circle cx="240.0" cy="349.6" r="9" fill="#aeb6bf" opacity="0.44"/><circle cx="270.0" cy="349.6" r="9" fill="#aeb6bf" opacity="0.44"/><circle cx="300.0" cy="349.6" r="9" fill="#aeb6bf" opacity="0.45"/><circle cx="330.0" cy="349.6" r="9" fill="#aeb6bf" opacity="0.46"/><circle cx="195.0" cy="375.4" r="9" fill="#aeb6bf" opacity="0.48"/><circle cx="225.0" cy="375.4" r="9" fill="#aeb6bf" opacity="0.47"/><circle cx="255.0" cy="375.4" r="9" fill="#aeb6bf" opacity="0.47"/><circle cx="285.0" cy="375.4" r="9" fill="#aeb6bf" opacity="0.47"/><circle cx="315.0" cy="375.4" r="9" fill="#aeb6bf" opacity="0.48"/></g>

  <!-- soft shading on the lower-right for volume -->
  <circle clip-path="url(#ballClip)" cx="330" cy="330" r="150" fill="#9aa1a9" opacity="0.16"/>
  <!-- top-left specular highlight -->
  <ellipse clip-path="url(#ballClip)" cx="198" cy="186" rx="58" ry="42" fill="#ffffff" opacity="0.55"/>

  <!-- crisp rim -->
  <circle cx="256" cy="248" r="158" fill="none" stroke="#ffffff" stroke-opacity="0.7" stroke-width="2"/>
</svg>
